<?xml version="1.0" encoding="utf-8"?>
<!-- Generator: Adobe Illustrator 24.1.2, SVG Export Plug-In . SVG Version: 6.00 Build 0)  -->
<svg version="1.1" id="Layer_1" xmlns="http://www.w3.org/2000/svg" xmlns:xlink="http://www.w3.org/1999/xlink" x="0px" y="0px"
	 viewBox="0 0 250 250" style="enable-background:new 0 0 250 250;" xml:space="preserve">
<style type="text/css">
	.st0{fill:#FFFFFF;stroke:#000000;stroke-miterlimit:10;}
</style>
<g>
	<path class="st0" d="M200.83,130.18c-1.59-1.44-3.58-2.27-5.58-2.16c1.52-1.59,2.59-3.73,3.2-6.01c0.99-3.69,0.72-7.64,0.15-11.39
		c-0.52-3.36-1.22-7-3.4-9.48c-1.94-2.22-4.66-3.12-7.29-3.42c-1.64-0.19-3.3-0.16-4.94,0.01c-1.41,0.14-2.8,0.44-4.14,0.95
		c0.8-1.79,1.11-3.84,0.92-5.86c-0.24-2.68-1.29-5.13-2.97-6.99c-1.67-1.85-3.85-3.06-6.11-3.53c-2.51-0.52-5.11-0.14-7.49,0.89
		c-1.38,0.59-2.7,1.38-3.92,2.34c-0.7,0.55-1.41,1.19-1.86,2.01c-1.02-3.64-4.13-6.1-7.38-6.55c-2.21-0.3-4.47,0.23-6.52,1.2
		c-1.88,0.9-3.67,2.13-5.08,3.85c-1.46,1.77-2.49,4.11-2.24,6.62c0.03,0.29,0.24,0.44,0.43,0.45c-1.06-0.03-2.12,0.04-3.18,0.21
		c-0.81,0.13-1.67,0.36-2.45,0.74c0-0.02,0-0.04,0-0.07c-0.18-3.25-0.39-6.6-1.46-9.65c-0.52-1.48-1.25-2.86-2.22-4.01
		c-1.04-1.22-2.3-2.17-3.62-2.91c-5.16-2.89-11.87-2.88-16.09,2.12c-1.21,1.43-2.14,3.18-2.66,5.08c-0.25-2.02-0.72-3.99-1.84-5.61
		c-1.52-2.21-4.05-3.35-6.42-3.62c-2.33-0.27-4.75,0.32-6.78,1.66c-2.03,1.33-3.62,3.45-4.55,5.93c-1.03,2.75-1.29,5.86-0.61,8.76
		c-0.11,0.1-0.21,0.19-0.32,0.29c-0.02-0.06-0.06-0.12-0.11-0.17c-4.71-4.35-10.81-7.24-16.84-5.32c-2.73,0.87-5.21,2.72-6.81,5.46
		c-1.51,2.58-2.22,5.85-1.72,8.93c0.48,2.93,2.06,5.3,3.91,7.3c-1.53-0.02-3.07,0.62-4.31,1.68c-1.92,1.63-3.04,4.18-3.49,6.86
		c-0.23,1.4-0.3,2.83-0.24,4.26c0.07,1.52,0.28,3.05,0.84,4.44c0.93,2.34,2.75,4.11,4.75,5.13c2.81,1.43,5.94,1.47,8.93,1.1
		c0.51-0.06,0.52-1,0-0.94c-2.55,0.32-5.17,0.35-7.63-0.58c-1.93-0.73-3.75-2.14-4.86-4.14c-1.27-2.27-1.41-5.2-1.18-7.83
		c0.23-2.52,1.02-5.1,2.63-6.87c1.48-1.63,3.6-2.54,5.61-2.03c0.22,0.22,0.45,0.43,0.67,0.64c0.4,0.37,0.97-0.29,0.57-0.66
		c-0.05-0.04-0.09-0.09-0.14-0.13c0.03-0.22-0.04-0.46-0.27-0.56c-0.16-0.07-0.32-0.12-0.49-0.17c-1.82-1.8-3.53-3.91-4.28-6.59
		c-0.79-2.82-0.34-5.94,0.9-8.49c2.77-5.7,8.94-7.43,14.13-6.02c3.21,0.87,6.16,2.8,8.73,5.17c0.04,0.04,0.08,0.06,0.13,0.08
		c-0.01,0.02-0.03,0.03-0.04,0.04c-1.69,1.87-2.88,4.25-4.04,6.57c-0.26,0.52,0.43,1,0.7,0.47c1.99-3.99,4.59-8.95,9.05-9.17
		c0.52-0.02,0.52-0.96,0-0.94c-1.47,0.07-2.86,0.67-4.08,1.59c-0.96-4.69,0.65-9.99,4.1-12.75c1.81-1.45,4-2.19,6.19-2.16
		c2.18,0.03,4.51,0.84,6.14,2.58c2,2.13,2.29,5.42,2.52,8.38c0.01,0.13,0.06,0.23,0.12,0.3c-0.01,0.36-0.01,0.71,0.01,1.07
		c0.04,0.6,0.85,0.6,0.81,0c-0.17-2.82,0.74-5.59,2.31-7.72c1.68-2.29,3.98-3.75,6.52-4.28c2.77-0.58,5.69-0.05,8.28,1.19
		c2.57,1.23,4.82,3.18,6.06,6.14c1.3,3.1,1.5,6.67,1.69,10.06c0.01,0.19,0.1,0.32,0.21,0.39c-0.57,0.35-1.08,0.79-1.51,1.36
		c-0.57,0.77-0.9,1.74-0.79,2.76c0.06,0.59,0.87,0.6,0.81,0c-0.25-2.25,1.87-3.52,3.45-4c1.18-0.36,2.44-0.47,3.65-0.48
		c1.36-0.02,2.72,0.15,4.05,0.47c0.5,0.12,0.72-0.78,0.21-0.9c-1.2-0.3-2.42-0.46-3.64-0.49c0.2,0,0.38-0.15,0.35-0.45
		c-0.43-4.33,3-7.56,6.02-9.21c3.46-1.89,7.74-2.46,11,0.27c1.5,1.26,2.66,3.17,2.89,5.34c0.01,0.07,0.03,0.13,0.05,0.18
		c0.09,0.43,0.75,0.38,0.79-0.16c0.09-1.27,1.14-2.15,1.98-2.8c1-0.78,2.07-1.47,3.19-1.99c2.19-1.03,4.59-1.54,6.95-1.21
		c4.16,0.57,8.1,3.87,8.97,8.81c0.44,2.49,0.07,5.23-1.21,7.32c-0.09,0.06-0.14,0.15-0.16,0.24c-0.02,0.02-0.03,0.05-0.05,0.07
		c-0.32,0.47,0.25,1.13,0.57,0.66c0.05-0.08,0.1-0.15,0.15-0.23c2.71-1.34,5.83-1.57,8.75-1.4c2.47,0.14,5.09,0.75,7.08,2.55
		c2.23,2.01,3.08,5.24,3.62,8.33c0.64,3.62,1.06,7.45,0.36,11.1c-0.62,3.25-2.2,6.37-4.75,8.03c-0.45,0.29-0.05,1.1,0.41,0.81
		c0.1-0.06,0.19-0.13,0.28-0.19c0.03,0,0.05-0.01,0.08-0.02c2-0.61,4.11-0.03,5.82,1.27c1.84,1.4,3.06,3.58,3.6,6.04
		c1.1,5.03-0.51,10.93-4,14.21c-1.88,1.76-4.39,2.65-6.78,2.21c-0.01,0-0.02,0-0.04-0.01c-0.18-0.03-0.35-0.07-0.53-0.12
		c-0.5-0.14-0.72,0.77-0.21,0.9c0.1,0.03,0.2,0.05,0.3,0.07c0.04,3.04,0.02,6.14-0.64,9.1c-0.68,3.03-2.13,5.65-4.41,7.36
		c-2.2,1.66-4.83,2.46-7.42,2.78c-2.95,0.37-6,0.21-8.81-1c-2.57-1.1-4.97-3.23-6.05-6.21c0.79,0,1.62-0.09,2.37-0.41
		c0.84-0.36,1.53-1,1.82-2.02c0.16-0.57-0.61-0.82-0.78-0.25c-0.26,0.92-1.03,1.34-1.79,1.55c-0.64,0.18-1.31,0.21-1.97,0.19
		c-0.15-0.15-0.37-0.14-0.52-0.02c-0.13-0.01-0.26-0.02-0.39-0.03c-1.95-0.15-4.64-1.07-4.81-3.81c-0.04-0.6-0.84-0.6-0.81,0
		c0.15,2.32,1.87,3.89,3.69,4.42c0.33,0.1,0.66,0.17,1,0.22c-0.06,0.07-0.1,0.17-0.11,0.29c-0.23,2.81-1.95,5.13-4,6.49
		c-2.5,1.66-5.51,1.83-8.32,1.56c-2.88-0.27-5.81-0.85-8.55-1.91c-2.61-1.01-5.02-2.61-6.9-4.96c-1.89-2.37-3.18-5.33-3.72-8.5
		c0.02-0.04,0.04-0.08,0.06-0.13c0.21-0.55-0.48-1.02-0.7-0.47c0,0,0,0.01-0.01,0.01c-0.12,0.09-0.2,0.24-0.19,0.44
		c-0.94,1.98-2.74,3.19-4.61,3.69c-2.62,0.69-5.37,0.02-7.96-0.52c-2.45-0.51-4.96-1.08-7.17-2.48c-2.17-1.37-3.97-3.49-5.66-5.55
		c-1.44-1.74-3.08-4.03-3.06-6.56c0.44,0.13,0.9,0.22,1.36,0.26c1.03,0.09,2.07-0.08,3.03-0.5c0.48-0.21,0.27-1.11-0.21-0.9
		c-1.32,0.57-2.76,0.63-4.09,0.2c0.01-0.08,0.02-0.17,0.04-0.25c0.13-0.59-0.65-0.84-0.78-0.25c-0.01,0.07-0.02,0.13-0.03,0.2
		c-0.13-0.06-0.25-0.13-0.38-0.2c-0.07-0.24-0.29-0.41-0.51-0.33c-0.07-0.05-0.14-0.1-0.21-0.15c-1.61-1.26-2.67-3.42-2.83-5.67
		c-0.04-0.6-0.85-0.6-0.81,0c0.13,1.98,0.85,3.86,2.02,5.3c0.36,0.44,0.77,0.83,1.2,1.16c-3.95,4.22-9.73,4.87-14.83,3.77
		c-1.51-0.32-2.99-0.78-4.45-1.32c-1.26-0.46-2.5-0.98-3.69-1.65c-2.29-1.28-4.36-3.13-5.5-5.83c-1.21-2.86-1.3-6.38-0.17-9.3
		c0.21-0.54-0.48-1.02-0.7-0.47c-1.07,2.78-1.18,5.99-0.32,8.87c0.9,3,2.8,5.27,5.14,6.84c2.52,1.68,5.42,2.72,8.23,3.46
		c3.01,0.8,6.14,1.12,9.2,0.51c2.89-0.58,5.69-2.02,7.83-4.39c0.22,0.13,0.44,0.24,0.67,0.35c-0.11,2.4,1.1,4.62,2.42,6.42
		c0.84,1.14,1.77,2.19,2.7,3.23c0.95,1.05,1.94,2.06,3.03,2.9c2.25,1.73,4.88,2.5,7.5,3.07c2.78,0.61,5.67,1.33,8.5,0.85
		c2.04-0.35,4.1-1.5,5.34-3.43c0.57,2.63,1.66,5.09,3.14,7.19c1.82,2.58,4.23,4.41,6.89,5.61c2.85,1.28,5.92,1.89,8.95,2.26
		c3.02,0.37,6.23,0.32,9-1.28c2.55-1.47,4.64-4.24,4.92-7.62c0.01-0.08,0-0.15-0.02-0.21c0.22,0.02,0.43,0.04,0.65,0.05
		c0.93,2.87,2.97,5.11,5.32,6.45c2.82,1.61,6.02,2.06,9.13,1.84c2.83-0.19,5.71-0.86,8.23-2.43c2.48-1.55,4.31-4,5.27-7.07
		c1.06-3.39,1.1-7.09,1.06-10.66c2.13,0.25,4.31-0.41,6.11-1.77c2.05-1.54,3.54-3.89,4.46-6.49
		C205.32,140.49,204.82,133.79,200.83,130.18z"/>
	<path class="st0" d="M152.22,175.18c-0.89,0-1.84-0.06-2.85-0.19c-2.33-0.29-5.79-0.84-8.98-2.27c-2.86-1.29-5.2-3.19-6.94-5.66
		c-1.45-2.04-2.51-4.44-3.1-6.95c-1.2,1.7-3.1,2.88-5.26,3.25c-2.66,0.45-5.36-0.14-7.97-0.72l-0.58-0.13
		c-2.56-0.56-5.25-1.33-7.55-3.09c-0.96-0.74-1.9-1.64-3.05-2.92c-0.9-1.01-1.86-2.09-2.71-3.24c-1.71-2.32-2.51-4.42-2.46-6.42
		c-0.17-0.08-0.34-0.17-0.51-0.26c-2.04,2.23-4.75,3.73-7.83,4.35c-2.81,0.56-5.83,0.4-9.25-0.51c-3.45-0.91-6.08-2.02-8.27-3.48
		c-2.55-1.71-4.35-4.1-5.2-6.92c-0.87-2.92-0.75-6.19,0.33-8.98c0.08-0.2,0.21-0.31,0.37-0.33c0.19-0.02,0.39,0.09,0.51,0.29
		c0.12,0.19,0.14,0.43,0.05,0.65c-1.11,2.86-1.04,6.29,0.17,9.17c1,2.35,2.83,4.29,5.44,5.75c1.02,0.57,2.19,1.09,3.67,1.64
		c1.6,0.59,3.05,1.02,4.44,1.32c5.86,1.27,11.16-0.04,14.59-3.6c-0.4-0.33-0.77-0.69-1.08-1.07c-1.19-1.46-1.92-3.38-2.06-5.4
		c-0.02-0.34,0.17-0.59,0.46-0.62c0.28-0.02,0.59,0.17,0.62,0.59c0.15,2.2,1.21,4.33,2.77,5.55c0.05,0.04,0.11,0.08,0.16,0.12
		c0.11-0.02,0.22,0,0.32,0.06c0.12,0.07,0.22,0.19,0.27,0.33c0.06,0.03,0.12,0.06,0.17,0.09c0,0,0-0.01,0-0.01
		c0.05-0.22,0.17-0.37,0.35-0.43c0.19-0.06,0.41,0,0.55,0.17c0.13,0.15,0.18,0.37,0.13,0.59c-0.01,0.03-0.01,0.06-0.02,0.1
		c1.28,0.38,2.65,0.3,3.89-0.23c0.18-0.08,0.34-0.05,0.48,0.08c0.15,0.14,0.22,0.39,0.18,0.63c-0.03,0.23-0.16,0.41-0.35,0.49
		c-0.98,0.42-2.05,0.6-3.09,0.51c-0.4-0.03-0.81-0.11-1.21-0.22c0.07,2.35,1.56,4.48,3.02,6.25c1.84,2.24,3.54,4.2,5.63,5.52
		c2.13,1.35,4.49,1.91,7.13,2.46l0.48,0.1c2.46,0.52,5,1.06,7.43,0.42c2.02-0.53,3.66-1.83,4.51-3.57c0-0.2,0.08-0.38,0.22-0.5
		c0.13-0.28,0.38-0.38,0.63-0.25c0.26,0.14,0.44,0.5,0.3,0.88c-0.01,0.03-0.02,0.05-0.03,0.08l0,0.01c0.54,3.14,1.82,6.04,3.68,8.37
		c1.75,2.18,4.05,3.84,6.85,4.92c2.47,0.96,5.34,1.59,8.52,1.9c3.53,0.34,6.15-0.15,8.24-1.54c2.26-1.5,3.73-3.88,3.93-6.37
		c0-0.05,0.01-0.11,0.03-0.16c-0.29-0.05-0.56-0.12-0.81-0.19c-1.65-0.48-3.63-1.97-3.8-4.56c-0.01-0.22,0.06-0.37,0.13-0.44
		c0.08-0.1,0.2-0.16,0.33-0.17c0.28-0.02,0.58,0.18,0.61,0.59c0.15,2.45,2.52,3.5,4.69,3.66c0.11,0.01,0.23,0.02,0.34,0.02
		c0.19-0.13,0.43-0.12,0.61,0.03c0.76,0.02,1.36-0.04,1.89-0.19c0.93-0.25,1.5-0.74,1.69-1.44c0.11-0.39,0.44-0.5,0.7-0.4
		c0.24,0.09,0.43,0.38,0.33,0.74c-0.27,0.97-0.93,1.7-1.9,2.11c-0.61,0.26-1.34,0.4-2.21,0.41c1.01,2.59,3.15,4.74,5.89,5.91
		c2.49,1.07,5.43,1.4,8.75,0.99c2.94-0.37,5.42-1.29,7.36-2.76c2.14-1.62,3.65-4.13,4.35-7.27c0.64-2.88,0.67-5.87,0.64-8.93
		c-0.07-0.02-0.13-0.03-0.2-0.05c-0.18-0.05-0.32-0.19-0.37-0.39c-0.06-0.22,0-0.48,0.14-0.65c0.13-0.16,0.32-0.22,0.51-0.17
		c0.16,0.04,0.33,0.08,0.52,0.12c0.01,0,0.02,0,0.04,0.01c2.28,0.42,4.77-0.4,6.67-2.18c3.44-3.22,5.06-9,3.96-14.04
		c-0.55-2.51-1.81-4.63-3.54-5.95c-1.78-1.36-3.86-1.81-5.71-1.25c-0.02,0.01-0.05,0.01-0.07,0.02l-0.03,0.02
		c-0.08,0.05-0.15,0.11-0.23,0.16c-0.17,0.11-0.36,0.11-0.52,0c-0.17-0.12-0.28-0.35-0.28-0.58c0-0.21,0.1-0.39,0.27-0.5
		c2.3-1.49,4-4.37,4.68-7.92c0.73-3.79,0.22-7.71-0.36-11.04c-0.52-2.95-1.35-6.23-3.57-8.24c-1.68-1.52-3.98-2.34-7.01-2.52
		c-3.52-0.21-6.35,0.24-8.65,1.37l-0.02,0.03c-0.04,0.06-0.07,0.12-0.11,0.17c-0.18,0.26-0.45,0.29-0.67,0.09
		c-0.23-0.21-0.33-0.62-0.11-0.95l0.03-0.04c0.03-0.12,0.09-0.22,0.19-0.29c1.18-1.94,1.62-4.62,1.17-7.17
		c-0.79-4.5-4.43-8.08-8.85-8.69c-2.2-0.3-4.58,0.11-6.88,1.2c-1.05,0.49-2.12,1.16-3.17,1.98c-0.88,0.68-1.83,1.51-1.92,2.68
		c-0.03,0.38-0.28,0.57-0.52,0.59c-0.25,0.02-0.47-0.13-0.53-0.38c-0.03-0.07-0.05-0.14-0.06-0.22c-0.21-1.99-1.25-3.9-2.84-5.23
		c-2.8-2.35-6.86-2.45-10.86-0.26c-1.52,0.83-6.45,3.94-5.95,9.05c0.01,0.14-0.01,0.24-0.04,0.32c1.09,0.06,2.17,0.22,3.23,0.48
		c0.18,0.05,0.32,0.18,0.37,0.37c0.06,0.22,0.01,0.47-0.13,0.65c-0.13,0.17-0.32,0.24-0.51,0.19c-1.33-0.33-2.68-0.49-4.02-0.47
		c-1.46,0.01-2.61,0.17-3.62,0.48c-1.76,0.54-3.57,1.83-3.35,3.83c0.03,0.32-0.13,0.58-0.41,0.62c-0.29,0.04-0.62-0.16-0.66-0.58
		c-0.11-1,0.18-2.03,0.82-2.89c0.37-0.5,0.83-0.93,1.37-1.29c-0.07-0.1-0.1-0.22-0.11-0.35c-0.18-3.24-0.38-6.9-1.68-10
		c-1.11-2.65-3.13-4.69-5.99-6.06c-2.71-1.3-5.62-1.72-8.21-1.18c-2.59,0.54-4.81,2-6.44,4.22c-1.61,2.19-2.44,4.96-2.28,7.61
		c0.02,0.34-0.17,0.59-0.47,0.62c-0.28,0.02-0.58-0.18-0.61-0.59c-0.02-0.32-0.02-0.66-0.01-1.02c-0.07-0.1-0.11-0.22-0.12-0.35
		c-0.21-2.73-0.46-6.13-2.47-8.28c-1.48-1.58-3.68-2.5-6.05-2.54c-2.18-0.03-4.35,0.73-6.11,2.13c-3.3,2.64-4.96,7.7-4.08,12.37
		c1.29-0.92,2.63-1.42,3.98-1.49c0.33-0.02,0.52,0.28,0.53,0.58c0.01,0.31-0.17,0.66-0.52,0.67c-4.5,0.22-7.06,5.35-8.93,9.09
		c-0.17,0.34-0.49,0.37-0.72,0.21c-0.23-0.16-0.38-0.5-0.2-0.84c1.14-2.28,2.32-4.64,3.98-6.5c-2.82-2.61-5.74-4.33-8.67-5.13
		c-4.72-1.28-11.1,0.03-13.98,5.94c-1.3,2.68-1.62,5.73-0.89,8.37c0.8,2.84,2.67,4.96,4.22,6.5c0.18,0.05,0.33,0.11,0.47,0.16
		c0.27,0.11,0.37,0.38,0.36,0.63h0l0.08,0.08c0.14,0.13,0.21,0.31,0.18,0.5c-0.03,0.22-0.17,0.41-0.37,0.5
		c-0.19,0.09-0.39,0.05-0.55-0.1c-0.22-0.2-0.43-0.41-0.65-0.62c-1.84-0.45-3.92,0.31-5.45,2c-1.42,1.56-2.33,3.96-2.58,6.77
		c-0.29,3.23,0.1,5.84,1.16,7.73c1.03,1.84,2.73,3.29,4.79,4.07c2.08,0.79,4.42,0.97,7.57,0.57c0.28-0.03,0.5,0.17,0.53,0.5
		c0.03,0.33-0.15,0.7-0.5,0.75c-3.73,0.46-6.59,0.11-9-1.11c-2.19-1.11-3.95-3.01-4.82-5.21c-0.5-1.25-0.77-2.68-0.85-4.5
		c-0.07-1.47,0.01-2.92,0.24-4.3c0.49-2.95,1.75-5.42,3.54-6.95c1.21-1.04,2.64-1.63,4.05-1.7c-2.09-2.34-3.31-4.67-3.71-7.12
		c-0.5-3.03,0.14-6.32,1.74-9.05c1.55-2.64,4-4.61,6.89-5.53c7.23-2.3,13.73,2.36,16.96,5.35c0.02,0.02,0.04,0.04,0.06,0.07
		c0.04-0.04,0.09-0.08,0.13-0.12c-0.64-2.84-0.41-5.95,0.64-8.76c0.95-2.54,2.59-4.67,4.61-6c2.06-1.36,4.5-1.95,6.86-1.68
		c2.75,0.32,5.12,1.66,6.51,3.68c0.89,1.29,1.45,2.87,1.78,5.06c0.54-1.67,1.4-3.23,2.51-4.55c4.46-5.27,11.37-4.88,16.24-2.15
		c1.47,0.82,2.71,1.81,3.66,2.94c0.92,1.09,1.68,2.46,2.25,4.06c1.09,3.09,1.3,6.51,1.46,9.55c0.67-0.3,1.45-0.53,2.31-0.67
		c0.88-0.15,1.79-0.22,2.7-0.22c-0.04-0.07-0.07-0.16-0.07-0.27c-0.23-2.28,0.58-4.68,2.28-6.75c1.29-1.57,3.02-2.88,5.13-3.89
		c2.26-1.07,4.54-1.49,6.59-1.21c3.4,0.47,6.34,3.01,7.4,6.36c0.49-0.76,1.18-1.35,1.74-1.79c1.24-0.97,2.57-1.77,3.95-2.36
		c2.52-1.09,5.14-1.4,7.56-0.89c2.34,0.49,4.54,1.76,6.18,3.57c1.7,1.88,2.76,4.39,3.01,7.08c0.18,1.96-0.09,3.9-0.8,5.62
		c1.18-0.42,2.45-0.7,3.86-0.85c1.75-0.18,3.42-0.18,4.97-0.01c3.2,0.37,5.68,1.53,7.38,3.46c2.2,2.51,2.9,6.1,3.43,9.56
		c0.49,3.22,0.92,7.43-0.15,11.46c-0.61,2.3-1.64,4.29-2.97,5.79c1.86,0,3.74,0.78,5.32,2.21l0,0c4.29,3.88,4.41,10.83,2.71,15.64
		c-1,2.82-2.56,5.09-4.52,6.57c-1.82,1.37-3.96,2.01-6.05,1.81c0.04,3.66-0.03,7.22-1.07,10.55c-0.97,3.1-2.82,5.58-5.34,7.15
		c-2.27,1.42-4.98,2.22-8.28,2.45c-3.52,0.24-6.61-0.38-9.2-1.86c-2.55-1.45-4.45-3.74-5.35-6.44c-0.13-0.01-0.26-0.02-0.4-0.03
		c0,0.02,0,0.03,0,0.05c-0.26,3.15-2.17,6.12-4.99,7.75C156.71,174.69,154.69,175.18,152.22,175.18z M130.47,159.42l0.07,0.32
		c0.56,2.57,1.64,5.04,3.12,7.13c1.72,2.43,4.02,4.3,6.83,5.56c3.16,1.42,6.6,1.97,8.91,2.25c3.78,0.47,6.62,0.06,8.93-1.27
		c2.74-1.58,4.6-4.45,4.84-7.49c0-0.05,0-0.09-0.01-0.13l-0.08-0.23l0.21,0.02c0.21,0.02,0.43,0.04,0.64,0.05l0.09,0l0.03,0.1
		c0.87,2.67,2.73,4.93,5.25,6.36c2.54,1.45,5.59,2.06,9.06,1.83c3.26-0.22,5.93-1.01,8.17-2.41c2.46-1.54,4.26-3.96,5.21-6.99
		c1.04-3.33,1.09-6.92,1.05-10.61l0-0.18l0.15,0.02c2.07,0.25,4.21-0.37,6.02-1.74c1.91-1.44,3.44-3.66,4.41-6.42
		c1.66-4.71,1.55-11.5-2.63-15.28l0,0c-1.63-1.47-3.58-2.23-5.49-2.13l-0.37,0.02l0.28-0.29c1.43-1.49,2.52-3.55,3.16-5.94
		c1.06-3.96,0.63-8.13,0.14-11.31c-0.52-3.41-1.21-6.95-3.36-9.39c-1.65-1.88-4.08-3.02-7.21-3.38c-1.53-0.17-3.18-0.17-4.92,0.01
		c-1.52,0.16-2.86,0.46-4.11,0.94l-0.31,0.12l0.15-0.34c0.78-1.75,1.1-3.75,0.91-5.78c-0.24-2.62-1.28-5.06-2.93-6.89
		c-1.6-1.77-3.75-3.01-6.04-3.49c-2.37-0.49-4.94-0.19-7.42,0.88c-1.36,0.59-2.67,1.37-3.89,2.33c-0.61,0.47-1.36,1.13-1.82,1.96
		l-0.15,0.28l-0.09-0.31c-0.95-3.39-3.87-5.97-7.27-6.44c-2-0.27-4.24,0.14-6.45,1.19c-2.08,0.99-3.77,2.27-5.04,3.82
		c-1.64,2-2.43,4.31-2.21,6.5c0.02,0.21,0.17,0.3,0.3,0.31l-0.01,0.31c0,0,0,0,0,0l0,0c0,0,0,0,0,0c-1.07-0.03-2.13,0.04-3.16,0.21
		c-0.91,0.15-1.73,0.39-2.42,0.73l-0.2,0.1l0.01-0.25c0-0.03,0-0.04,0-0.05c-0.17-3.05-0.36-6.5-1.45-9.6
		c-0.55-1.56-1.29-2.89-2.19-3.95c-0.93-1.1-2.14-2.07-3.59-2.88c-4.79-2.68-11.57-3.08-15.94,2.08c-1.22,1.44-2.12,3.17-2.62,5.02
		l-0.18,0.65l-0.08-0.67c-0.31-2.46-0.87-4.17-1.81-5.53c-1.35-1.95-3.65-3.25-6.33-3.56c-2.31-0.27-4.69,0.32-6.71,1.64
		c-1.97,1.3-3.56,3.38-4.49,5.86c-1.04,2.78-1.26,5.86-0.61,8.66l0.02,0.1l-0.07,0.06c-0.11,0.09-0.21,0.19-0.31,0.29l-0.14,0.13
		l-0.07-0.2c-0.01-0.04-0.04-0.08-0.07-0.11c-3.19-2.95-9.6-7.56-16.72-5.29c-2.83,0.9-5.22,2.82-6.74,5.4
		c-1.56,2.66-2.18,5.87-1.69,8.82c0.41,2.48,1.67,4.84,3.87,7.22l0.25,0.27l-0.35,0c-0.02,0-0.04,0-0.06,0
		c-1.44,0-2.92,0.58-4.16,1.65c-1.74,1.48-2.96,3.88-3.44,6.76c-0.22,1.35-0.3,2.77-0.23,4.22c0.08,1.78,0.34,3.17,0.83,4.39
		c0.85,2.13,2.56,3.97,4.69,5.06c2.36,1.2,5.18,1.55,8.86,1.09c0.22-0.03,0.28-0.26,0.26-0.4c-0.01-0.08-0.04-0.25-0.23-0.22
		c-3.19,0.4-5.57,0.21-7.69-0.59c-2.12-0.81-3.87-2.3-4.93-4.2c-1.09-1.96-1.5-4.63-1.2-7.93c0.26-2.88,1.21-5.35,2.67-6.96
		c1.6-1.77,3.8-2.56,5.73-2.07l0.03,0.01l0.03,0.02c0.22,0.22,0.45,0.43,0.67,0.64c0.11,0.11,0.23,0.08,0.29,0.05
		c0.1-0.05,0.18-0.15,0.2-0.26c0.01-0.08-0.02-0.15-0.09-0.21l-0.2-0.19l0.01-0.09c0.02-0.14-0.01-0.31-0.18-0.38
		c-0.14-0.06-0.29-0.11-0.47-0.16l-0.03-0.01l-0.02-0.02c-1.58-1.56-3.5-3.73-4.32-6.66c-0.76-2.72-0.43-5.87,0.91-8.62
		c2.94-6.05,9.46-7.4,14.27-6.09c2.97,0.81,5.93,2.56,8.79,5.2c0.03,0.02,0.05,0.04,0.09,0.05l0.21,0.08l-0.18,0.2
		c-1.7,1.87-2.89,4.25-4.04,6.55c-0.1,0.21,0.02,0.36,0.1,0.42c0.11,0.07,0.26,0.09,0.36-0.1c1.79-3.59,4.51-9.02,9.16-9.25
		c0.19-0.01,0.26-0.19,0.26-0.35c0-0.05-0.02-0.28-0.25-0.28c-1.37,0.07-2.72,0.59-4.01,1.56l-0.16,0.12l-0.04-0.21
		c-0.99-4.85,0.71-10.16,4.15-12.91c1.8-1.44,4.03-2.21,6.27-2.19c2.43,0.03,4.7,0.99,6.23,2.62c2.09,2.23,2.35,5.7,2.56,8.48
		c0.01,0.08,0.03,0.15,0.08,0.21l0.04,0.05l0,0.07c-0.01,0.38-0.01,0.73,0.01,1.05c0.02,0.24,0.2,0.31,0.32,0.3
		c0.05,0,0.23-0.04,0.22-0.28c-0.16-2.73,0.69-5.58,2.34-7.83c1.67-2.28,3.95-3.78,6.6-4.33c2.63-0.55,5.6-0.12,8.35,1.2
		c2.93,1.4,4.99,3.49,6.13,6.21c1.32,3.15,1.52,6.85,1.7,10.12c0.01,0.15,0.08,0.22,0.14,0.26l0.22,0.14l-0.22,0.14
		c-0.59,0.36-1.08,0.81-1.47,1.33c-0.59,0.79-0.86,1.73-0.76,2.64c0.03,0.24,0.23,0.32,0.36,0.31c0.08-0.01,0.2-0.06,0.18-0.27
		c-0.24-2.2,1.67-3.6,3.55-4.17c1.03-0.32,2.2-0.47,3.69-0.49c1.36-0.02,2.73,0.15,4.08,0.48c0.13,0.03,0.21-0.03,0.26-0.09
		c0.07-0.09,0.1-0.23,0.07-0.34c-0.02-0.09-0.08-0.14-0.17-0.16c-1.18-0.29-2.39-0.45-3.61-0.49l0-0.31c0.08,0,0.14-0.03,0.18-0.08
		c0.03-0.05,0.05-0.11,0.04-0.19c-0.52-5.32,4.54-8.51,6.1-9.37c4.09-2.23,8.25-2.13,11.13,0.29c1.65,1.38,2.72,3.37,2.95,5.45
		c0,0.05,0.02,0.09,0.04,0.13l0.01,0.04c0.03,0.13,0.15,0.18,0.25,0.17c0.12-0.01,0.26-0.1,0.28-0.3c0.1-1.31,1.1-2.19,2.04-2.91
		c1.07-0.83,2.15-1.51,3.22-2.01c2.35-1.11,4.77-1.53,7.01-1.22c4.53,0.63,8.27,4.3,9.08,8.93c0.47,2.64,0.01,5.42-1.23,7.44
		l-0.04,0.04c-0.05,0.04-0.08,0.08-0.09,0.14l-0.01,0.04l-0.07,0.11c-0.14,0.2-0.03,0.42,0.06,0.51c0.05,0.05,0.18,0.13,0.3-0.04
		c0.04-0.05,0.07-0.11,0.11-0.17l0.06-0.1l0.03-0.02c2.35-1.16,5.23-1.62,8.8-1.41c3.09,0.18,5.43,1.03,7.16,2.58
		c2.29,2.07,3.14,5.42,3.67,8.42c0.59,3.36,1.1,7.32,0.36,11.17c-0.7,3.64-2.45,6.6-4.82,8.13c-0.08,0.05-0.13,0.13-0.13,0.23
		c0,0.12,0.06,0.24,0.15,0.31c0.05,0.04,0.14,0.07,0.25,0c0.07-0.05,0.15-0.1,0.22-0.15l0.08-0.06l0.03,0c0.02,0,0.04,0,0.06-0.01
		c1.92-0.58,4.08-0.11,5.93,1.29c1.79,1.36,3.09,3.54,3.66,6.13c1.13,5.16-0.53,11.07-4.05,14.37c-1.96,1.84-4.53,2.68-6.89,2.25
		l-0.04-0.01c-0.2-0.04-0.37-0.08-0.54-0.12c-0.13-0.03-0.21,0.02-0.25,0.08c-0.07,0.09-0.1,0.23-0.08,0.34
		c0.02,0.09,0.08,0.15,0.17,0.17c0.08,0.02,0.16,0.04,0.23,0.06l0.17,0.04l0,0.13c0.04,3.13,0.02,6.19-0.64,9.14
		c-0.72,3.22-2.27,5.79-4.47,7.45c-1.98,1.49-4.5,2.44-7.48,2.81c-3.36,0.42-6.34,0.08-8.87-1.01c-2.89-1.24-5.12-3.54-6.13-6.3
		l-0.08-0.22l0.2,0c0.93,0,1.69-0.13,2.32-0.4c0.89-0.38,1.49-1.04,1.74-1.92c0.07-0.25-0.12-0.34-0.16-0.35
		c-0.13-0.05-0.3-0.01-0.36,0.2c-0.23,0.82-0.86,1.37-1.89,1.65c-0.56,0.15-1.2,0.22-2.01,0.19l-0.05,0l-0.04-0.04
		c-0.1-0.11-0.26-0.09-0.36-0.01l-0.04,0.03l-0.05,0c-0.13-0.01-0.26-0.02-0.39-0.03c-2.28-0.17-4.77-1.3-4.94-3.95
		c-0.01-0.24-0.2-0.31-0.32-0.31c-0.07,0.01-0.12,0.03-0.16,0.08c-0.04,0.05-0.06,0.12-0.05,0.2c0.15,2.43,2.03,3.82,3.59,4.28
		c0.3,0.09,0.62,0.16,0.98,0.22l0.26,0.04l-0.18,0.22c-0.04,0.05-0.07,0.12-0.08,0.2c-0.21,2.59-1.73,5.06-4.07,6.61
		c-2.14,1.42-4.81,1.92-8.4,1.58c-3.2-0.31-6.09-0.95-8.58-1.91c-2.84-1.1-5.18-2.78-6.96-5c-1.91-2.39-3.21-5.35-3.76-8.57
		l-0.01-0.05l0.05-0.11c0.01-0.02,0.02-0.04,0.03-0.06c0.09-0.23-0.05-0.41-0.16-0.47c-0.06-0.03-0.21-0.08-0.29,0.12l-0.02,0.04
		l-0.04,0.04c-0.05,0.04-0.14,0.13-0.13,0.3l0,0.05l-0.02,0.04c-0.88,1.84-2.59,3.21-4.7,3.76c-2.49,0.65-5.06,0.11-7.54-0.42
		l-0.48-0.1c-2.66-0.56-5.04-1.13-7.21-2.5c-2.12-1.34-3.84-3.32-5.7-5.58c-1.54-1.87-3.12-4.13-3.1-6.67l0-0.2l0.17,0.05
		c0.44,0.13,0.89,0.22,1.33,0.26c1.01,0.09,2.03-0.08,2.98-0.49c0.13-0.05,0.17-0.17,0.18-0.25c0.02-0.13-0.02-0.26-0.09-0.33
		c-0.06-0.05-0.13-0.06-0.21-0.03c-1.33,0.57-2.81,0.64-4.17,0.2l-0.12-0.04l0.04-0.23c0.01-0.06,0.02-0.11,0.03-0.17
		c0.03-0.15-0.02-0.24-0.06-0.29c-0.08-0.09-0.2-0.12-0.29-0.09c-0.08,0.03-0.14,0.1-0.16,0.21c-0.01,0.04-0.01,0.07-0.02,0.11
		l-0.05,0.26l-0.15-0.07c-0.13-0.06-0.26-0.13-0.39-0.2l-0.05-0.03l-0.02-0.06c-0.03-0.09-0.08-0.17-0.16-0.21
		c-0.04-0.02-0.11-0.05-0.18-0.02l-0.06,0.02l-0.1-0.07c-0.06-0.04-0.12-0.08-0.17-0.13c-1.62-1.27-2.73-3.49-2.89-5.79
		c-0.02-0.24-0.2-0.32-0.33-0.3c-0.05,0-0.23,0.04-0.21,0.28c0.13,1.95,0.84,3.8,1.99,5.21c0.34,0.41,0.73,0.79,1.18,1.14l0.14,0.11
		l-0.13,0.13c-3.49,3.72-8.93,5.11-14.95,3.81c-1.4-0.3-2.86-0.73-4.47-1.33c-1.49-0.55-2.67-1.08-3.71-1.65
		c-2.67-1.5-4.54-3.48-5.57-5.9c-1.25-2.96-1.31-6.49-0.18-9.44c0.06-0.15,0.01-0.28-0.03-0.33c-0.06-0.1-0.17-0.17-0.27-0.16
		c-0.07,0.01-0.12,0.06-0.16,0.15c-1.05,2.72-1.17,5.91-0.32,8.75c0.82,2.75,2.58,5.08,5.08,6.75c2.17,1.45,4.77,2.54,8.2,3.45
		c3.38,0.89,6.37,1.06,9.14,0.5c3.06-0.62,5.75-2.12,7.76-4.35l0.07-0.08l0.08,0.05c0.22,0.13,0.44,0.24,0.65,0.34l0.09,0.04l0,0.11
		c-0.09,1.95,0.7,4.01,2.39,6.31c0.84,1.14,1.79,2.22,2.69,3.22c1.14,1.27,2.07,2.16,3.01,2.88c2.26,1.74,4.91,2.49,7.45,3.05
		l0.58,0.13c2.59,0.57,5.26,1.16,7.88,0.72c2.2-0.38,4.12-1.61,5.26-3.37L130.47,159.42z"/>
</g>
</svg>
