<?xml version="1.0" encoding="utf-8"?>
<!-- Generator: Adobe Illustrator 24.1.2, SVG Export Plug-In . SVG Version: 6.00 Build 0)  -->
<svg version="1.1" id="Layer_1" xmlns="http://www.w3.org/2000/svg" xmlns:xlink="http://www.w3.org/1999/xlink" x="0px" y="0px"
	 viewBox="0 0 1125 2436" style="enable-background:new 0 0 1125 2436;" xml:space="preserve">
	<style type="text/css">
			svg {
	      position: absolute;
	      top: 0;
	      bottom: 0;
	      left: 0;
	      right: 0;
	      margin: auto;
	    }

	    svg {
	      animation: MoveUpDown 1.5s linear infinite;
	      position: absolute;
	      left: 0;
	      bottom: 0;
	    }

	    @keyframes MoveUpDown {

	      0%,
	      100% {
	        bottom: 0;
	      }

	      50% {
	        bottom: 100px;
	      }
	    }
	</style>
	<g>
		<path d="M798.4,722.3c-3.7,9-9.5,16.3-16.8,21c-6,3.9-12.9,5.9-19.7,5.9c-1,0-1.9-0.1-2.9-0.1c0.1,10.4,0,22.8-4,33.8
			c-3.6,9.9-10.5,17.8-19.9,22.9c-8.5,4.6-18.6,7.1-30.8,7.8c-1.8,0.1-3.6,0.2-5.4,0.2c-10.9,0-20.6-2-28.9-6.1
			c-9.4-4.6-16.6-12.1-19.9-20.6c-0.5,0-1-0.1-1.5-0.1c0,0.1,0,0.1,0,0.2c-1,10.1-8.1,19.6-18.6,24.8c-6.5,3.2-14,4.8-23.2,4.8
			c-3.3,0-6.8-0.2-10.6-0.6c-8.7-0.9-21.6-2.7-33.4-7.3c-10.7-4.1-19.4-10.2-25.9-18.1c-5.4-6.6-9.4-14.2-11.5-22.2
			c-5.1,6.2-13,9.4-19.6,10.4c-2.5,0.4-4.9,0.5-7.4,0.5c-7.5,0-15-1.4-22.3-2.8l-2.2-0.4c-9.5-1.8-19.6-4.3-28.1-9.9
			c-3.6-2.4-7.1-5.2-11.4-9.3c-3.4-3.2-6.9-6.7-10.1-10.4c-6.3-7.4-9.4-14.1-9.2-20.5c-0.6-0.3-1.3-0.5-1.9-0.8
			c-7.6,7.1-17.6,11.9-29.1,13.9c-4,0.7-8.2,1-12.5,1c-6.9,0-14.1-0.9-22-2.7c-12.9-2.9-22.7-6.5-30.8-11.1
			c-9.5-5.5-16.2-13.1-19.4-22.2c-3.3-9.3-2.8-19.8,1.2-28.8v0c0.3-0.6,0.8-1,1.4-1.1c0.7-0.1,1.5,0.3,1.9,0.9
			c0.4,0.6,0.5,1.4,0.2,2.1c-4.1,9.2-3.9,20.1,0.6,29.4c3.7,7.5,10.5,13.7,20.3,18.4c3.8,1.8,8.2,3.5,13.7,5.2
			c6,1.9,11.4,3.3,16.5,4.2c21.9,4.1,41.5-0.1,54.3-11.5c-1.4-1-2.8-2.2-4-3.4c-4.4-4.7-7.2-10.8-7.7-17.3v0c-0.1-1.1,0.6-1.9,1.7-2
			c1-0.1,2.2,0.6,2.3,1.9c0.6,7.1,4.5,13.9,10.3,17.8c0.2,0.1,0.4,0.2,0.6,0.4c0.6-0.1,1.3,0.1,1.7,0.6c0.2,0.2,0.3,0.4,0.5,0.7
			c0.2,0.1,0.4,0.2,0.6,0.3c0,0,0,0,0,0c0.2-0.7,0.6-1.2,1.3-1.4c0.7-0.2,1.5,0,2.1,0.5c0.5,0.5,0.7,1.2,0.5,1.9c0,0.1,0,0.2-0.1,0.3
			c4.7,1.2,9.8,1,14.5-0.8c0.7-0.2,1.3-0.1,1.8,0.3c0.5,0.5,0.8,1.2,0.7,2c-0.1,0.7-0.6,1.3-1.3,1.6c-3,1.1-6.3,1.7-9.5,1.7
			c-0.7,0-1.3,0-2-0.1c-1.5-0.1-3-0.3-4.5-0.7c0.2,7.4,5.7,14.2,11.3,20c6.9,7.2,13.2,13.5,21,17.7c7.9,4.3,16.7,6.1,26.5,7.9
			l1.8,0.3c9.1,1.7,18.6,3.4,27.7,1.3c7.6-1.7,13.6-5.9,16.8-11.5c0-0.6,0.3-1.1,0.7-1.5c0,0,0.1,0,0.1-0.1c0.5-0.9,1.4-1.2,2.3-0.8
			c1,0.4,1.7,1.6,1.1,2.8c0,0.1-0.1,0.2-0.1,0.3c2,10.1,6.7,19.3,13.7,26.8c6.5,7,15.1,12.3,25.5,15.7c9.2,3.1,19.9,5.1,31.7,6.1
			c13.1,1.1,22.9-0.5,30.7-4.9c8.4-4.8,13.9-12.4,14.6-20.4c0-0.2,0.1-0.3,0.1-0.5c-1-0.2-2-0.4-3-0.6c-6.1-1.6-13.5-6.3-14.1-14.6v0
			c0-0.7,0.2-1.3,0.7-1.6c0.6-0.4,1.4-0.4,2.1-0.1c0.7,0.3,1.1,0.9,1.1,1.7c0.6,7.8,9.4,11.2,17.5,11.7c0.4,0,0.9,0.1,1.3,0.1
			c0.5-0.3,1-0.4,1.5-0.2c0.3,0.1,0.5,0.2,0.7,0.3c2.4,0.1,4.8-0.1,7.1-0.6c3.4-0.8,5.6-2.4,6.3-4.6c0.4-1.2,1.6-1.6,2.6-1.3
			c0.9,0.3,1.6,1.2,1.2,2.4c-1,3.1-3.5,5.5-7.1,6.8c-2.3,0.8-5,1.3-8.2,1.3c3.8,8.3,11.6,15.1,21.9,18.9c9.3,3.4,20.2,4.5,32.6,3.2
			c10.9-1.2,20.2-4.1,27.4-8.8c8-5.2,13.6-13.2,16.2-23.3c2.5-9.6,2.5-20,2.4-28.6c-0.2-0.1-0.5-0.1-0.7-0.2
			c-0.7-0.2-1.2-0.6-1.4-1.2c-0.2-0.7,0-1.5,0.5-2.1c0.5-0.5,1.2-0.7,1.9-0.5c0.6,0.2,1.3,0.3,1.9,0.4c0,0,0.1,0,0.1,0
			c8.5,1.4,17.7-1.2,24.9-7c12.8-10.3,18.9-28.8,14.7-45c-2-8-6.7-14.8-13.2-19c-6.6-4.3-14.4-5.8-21.3-4c-0.1,0-0.2,0-0.3,0
			c-0.3,0.2-0.7,0.4-1,0.6c-0.3,0.2-0.7,0.3-1,0.3c-0.3,0-0.7-0.1-1-0.3c-0.6-0.4-1.1-1.1-1-1.9c0-0.7,0.4-1.3,1-1.6
			c8.6-4.8,14.9-14,17.4-25.4c2.7-12.1,0.8-24.7-1.4-35.3c-1.9-9.4-5-20-13.3-26.4c-6.3-4.9-14.8-7.5-26.1-8.1
			c-13.1-0.7-23.6,0.8-32.2,4.4c-0.2,0.2-0.3,0.4-0.5,0.6c-0.4,0.5-0.9,0.7-1.4,0.7c-0.4,0-0.8-0.1-1.1-0.4c-0.8-0.7-1.2-2-0.4-3
			c0,0,0.1-0.1,0.1-0.2c0.1-0.4,0.3-0.7,0.7-0.9c4.4-6.2,6-14.7,4.3-22.9c-2.9-14.4-16.5-25.8-33-27.8c-8.2-1-17,0.4-25.6,3.8
			c-3.9,1.6-7.9,3.7-11.8,6.3c-3.3,2.2-6.8,4.8-7.1,8.6v0c-0.1,0.6-0.3,1-0.7,1.3c0,0,0,0-0.1,0c-0.4,0.4-1,0.5-1.6,0.5
			c-0.5,0-0.9-0.2-1.2-0.6c-0.1-0.2-0.3-0.4-0.4-0.7c-0.1-0.2-0.2-0.4-0.2-0.7c-0.8-6.4-4.7-12.5-10.6-16.7
			c-10.4-7.5-25.5-7.8-40.5-0.8c-5.7,2.7-24,12.6-22.1,29c0,0.4,0,0.7-0.2,1c4,0.2,8,0.7,12,1.5c0.7,0.1,1.2,0.6,1.4,1.2
			c0.2,0.7,0,1.5-0.5,2.1c-0.5,0.5-1.2,0.8-1.9,0.6c-5-1.1-10-1.6-15-1.5c-5.4,0-9.7,0.5-13.5,1.5c-6.6,1.7-13.3,5.9-12.5,12.3v0
			c0.1,1-0.5,1.8-1.5,2c-0.1,0-0.2,0-0.3,0c-1,0-2-0.6-2.2-1.9c-0.4-3.2,0.7-6.5,3-9.2c1.4-1.6,3.1-3,5.1-4.1
			c-0.2-0.3-0.4-0.7-0.4-1.1c-0.7-10.4-1.4-22.1-6.3-32c-4.1-8.5-11.6-15-22.3-19.4c-10.1-4.2-21-5.5-30.6-3.8
			c-9.6,1.7-17.9,6.4-24,13.5c-6,7-9.1,15.9-8.5,24.4c0.1,1.1-0.6,1.9-1.7,2c-1,0.1-2.2-0.6-2.3-1.9c-0.1-1.1-0.1-2.2-0.1-3.3
			c-0.2-0.3-0.4-0.7-0.4-1.1c-0.8-8.7-1.7-19.6-9.2-26.5c-5.5-5.1-13.7-8-22.5-8.1c-8.1-0.1-16.2,2.3-22.8,6.8
			c-12.2,8.4-18.4,24.8-15.2,39.6c4.1-2.5,9.1-4.5,14.8-4.8c1.2-0.1,1.9,0.9,2,1.8c0,1-0.6,2.1-1.9,2.2
			c-16.8,0.7-26.3,17.1-33.3,29.1l0,0c-0.4,0.7-1,1-1.6,1c-0.4,0-0.7-0.1-1.1-0.3c-0.9-0.5-1.4-1.6-0.8-2.7
			c4.2-7.3,8.6-14.8,14.8-20.8c-10.5-8.4-21.4-13.9-32.3-16.4c-17.6-4.1-41.4,0.1-52.1,19c-4.8,8.6-6,18.3-3.3,26.8
			c2.8,8.5,9.2,15.2,15.7,20.8c0.6,0.2,1.2,0.3,1.7,0.5c1,0.3,1.4,1.2,1.4,2c0.1,0.1,0.2,0.2,0.3,0.3c0.5,0.4,0.8,1,0.7,1.6
			c-0.1,0.7-0.6,1.3-1.4,1.6c-0.3,0.1-0.5,0.2-0.8,0.2c-0.5,0-0.9-0.2-1.3-0.5c-0.8-0.6-1.6-1.3-2.4-2c-6.8-1.4-14.6,0.9-20.3,6.4
			c-5.3,5-8.7,12.7-9.6,21.7c-1.1,10.4,0.4,18.7,4.3,24.7c3.8,5.9,10.2,10.5,17.8,13c7.8,2.5,16.5,3.1,28.2,1.8
			c1.1-0.1,1.9,0.6,2,1.6c0.1,1.1-0.6,2.2-1.9,2.4c-3.9,0.4-7.6,0.6-11,0.6c-8.8,0-16.1-1.4-22.5-4.2c-8.2-3.6-14.7-9.6-18-16.7
			c-1.9-4-2.9-8.6-3.2-14.4c-0.3-4.7,0-9.3,0.9-13.8c1.8-9.5,6.5-17.4,13.2-22.3c4.6-3.3,9.9-5.2,15.1-5.4
			c-6.3-6-12.1-13.6-13.8-22.8c-1.9-9.7,0.5-20.2,6.5-29c5.8-8.5,14.9-14.7,25.7-17.7c26.9-7.4,51.1,7.6,63.2,17.1
			c0.1,0.1,0.2,0.1,0.2,0.2c0.2-0.1,0.3-0.3,0.5-0.4c-2.4-9.1-1.5-19,2.4-28.1c3.5-8.1,9.6-15,17.2-19.2c7.7-4.3,16.7-6.3,25.6-5.4
			c10.2,1,19.1,5.3,24.3,11.8c3.8,4.7,5.6,10.5,6.6,16.2c2-5.3,5.1-10.2,9.4-14.5c16.6-16.9,42.3-15.6,60.5-6.9
			c5.5,2.6,10.1,5.8,13.6,9.4c3.4,3.5,6.3,7.9,8.4,13c4.1,9.9,4.8,20.9,5.5,30.6c2.5-1,5.4-1.7,8.6-2.2c3.4-0.5,6.7-0.7,10.1-0.7
			c-0.2-0.3-0.3-0.5-0.3-0.8c-0.8-7.3,2.2-15,8.5-21.6c4.8-5,11.2-9.2,19.1-12.4c8.4-3.4,16.9-4.8,24.5-3.9
			c11.2,1.3,23.3,8.6,27.6,20.4c1.7-2.3,4.1-4.2,6.5-5.7c4.6-3.1,9.6-5.7,14.7-7.6c9.4-3.5,19.1-4.5,28.2-2.9
			c8.7,1.6,16.9,5.6,23,11.4c6.3,6,10.3,14.1,11.2,22.7c0.7,6.3-0.4,12.5-3,18c4.4-1.3,9.1-2.2,14.4-2.7c6.5-0.6,12.7-0.6,18.5,0
			c11.9,1.2,21.2,4.9,27.5,11.1c8.2,8,10.8,19.5,12.8,30.6c1.8,10.3,3.4,23.8-0.6,36.7c-2.3,7.4-6.1,13.8-11.1,18.6
			c6.9,0,13.9,2.5,19.8,7.1C804.2,684.6,804.7,706.9,798.4,722.3z"/>
		<path d="M788.2,672.2c-5.9-4.6-12.9-7-19.8-7.1c5-4.8,8.8-11.1,11.1-18.6c4-12.9,2.4-26.4,0.6-36.7c-2-11.1-4.6-22.6-12.8-30.6
			c-6.3-6.2-15.5-9.9-27.5-11.1c-5.7-0.6-12-0.6-18.5,0c-5.3,0.5-10,1.4-14.4,2.7c2.6-5.5,3.7-11.7,3-18c-0.9-8.6-4.9-16.7-11.2-22.7
			c-6.1-5.8-14.3-9.9-23-11.4c-9-1.6-18.8-0.6-28.2,2.9c-5.2,1.9-10.1,4.4-14.7,7.6c-2.4,1.6-4.8,3.4-6.5,5.7
			c-4.3-11.8-16.4-19-27.6-20.4c-7.6-0.9-16.1,0.4-24.5,3.9c-7.9,3.2-14.3,7.4-19.1,12.4c-6.3,6.6-9.3,14.3-8.5,21.6
			c0,0.3,0.1,0.6,0.3,0.8c-3.4,0-6.7,0.2-10.1,0.7c-3.2,0.5-6.1,1.2-8.6,2.2c-0.6-9.7-1.4-20.7-5.5-30.6c-2.1-5.1-4.9-9.5-8.4-13
			c-3.6-3.6-8.2-6.8-13.6-9.4c-18.2-8.7-43.9-10-60.5,6.9c-4.2,4.3-7.4,9.3-9.4,14.5c-1-5.7-2.8-11.4-6.6-16.2
			c-5.2-6.5-14-10.8-24.3-11.8c-8.8-0.9-17.9,1-25.6,5.4c-7.5,4.3-13.6,11.1-17.2,19.2c-3.9,9-4.8,19-2.4,28.1
			c-0.2,0.1-0.3,0.3-0.5,0.4c-0.1-0.1-0.1-0.1-0.2-0.2c-12-9.6-36.2-24.5-63.2-17.1c-10.8,2.9-19.9,9.2-25.7,17.7
			c-6,8.7-8.3,19.3-6.5,29c1.8,9.3,7.5,16.8,13.8,22.8c-5.2,0.2-10.6,2.1-15.1,5.4c-6.7,4.9-11.4,12.8-13.2,22.3
			c-0.8,4.4-1.1,9-0.9,13.8c0.3,5.8,1.3,10.4,3.2,14.4c3.3,7,9.8,13.1,18,16.7c6.4,2.8,13.8,4.2,22.5,4.2c3.4,0,7.1-0.2,11-0.6
			c1.3-0.1,2-1.3,1.9-2.4c-0.1-1.1-0.9-1.7-2-1.6c-11.8,1.3-20.5,0.7-28.2-1.8c-7.7-2.5-14-7.1-17.8-13c-3.9-6.1-5.4-14.4-4.3-24.7
			c0.9-9,4.4-16.7,9.6-21.7c5.8-5.5,13.5-7.8,20.3-6.4c0.8,0.7,1.6,1.3,2.4,2c0.4,0.3,0.8,0.5,1.3,0.5c0.3,0,0.5,0,0.8-0.2
			c0.7-0.3,1.3-0.9,1.4-1.6c0.1-0.6-0.2-1.2-0.7-1.6c-0.1-0.1-0.2-0.2-0.3-0.3c0-0.8-0.4-1.7-1.4-2c-0.6-0.2-1.1-0.4-1.7-0.5
			c-6.6-5.6-12.9-12.3-15.7-20.8c-2.7-8.5-1.5-18.2,3.3-26.8c10.7-18.9,34.5-23.1,52.1-19c10.9,2.6,21.8,8.1,32.3,16.4
			c-6.2,6-10.6,13.5-14.8,20.8c-0.6,1.1-0.1,2.2,0.8,2.7c0.3,0.2,0.7,0.3,1.1,0.3c0.6,0,1.2-0.3,1.6-1l0,0c7-12,16.5-28.4,33.3-29.1
			c1.3-0.1,2-1.2,1.9-2.2c0-1-0.7-1.9-2-1.8c-5.8,0.3-10.8,2.3-14.8,4.8c-3.2-14.8,3-31.2,15.2-39.6c6.5-4.5,14.7-6.9,22.8-6.8
			c8.8,0.1,17,3.1,22.5,8.1c7.5,6.9,8.4,17.8,9.2,26.5c0,0.4,0.2,0.8,0.4,1.1c0,1.1,0,2.2,0.1,3.3c0.1,1.3,1.2,2,2.3,1.9
			c1.1-0.1,1.8-0.9,1.7-2c-0.6-8.5,2.5-17.3,8.5-24.4c6.1-7.1,14.4-11.8,24-13.5c9.6-1.7,20.5-0.4,30.6,3.8
			c10.7,4.4,18.2,10.9,22.3,19.4c4.8,9.9,5.6,21.7,6.3,32c0,0.5,0.2,0.8,0.4,1.1c-2,1.2-3.7,2.5-5.1,4.1c-2.4,2.7-3.5,6-3,9.2
			c0.2,1.2,1.2,1.9,2.2,1.9c0.1,0,0.2,0,0.3,0c1-0.1,1.7-0.9,1.5-2v0c-0.8-6.4,5.9-10.5,12.5-12.3c3.8-1,8-1.5,13.5-1.5
			c5,0,10,0.5,15,1.5c0.7,0.2,1.4-0.1,1.9-0.6c0.5-0.6,0.7-1.4,0.5-2.1c-0.2-0.6-0.7-1-1.4-1.2c-4-0.8-8-1.3-12-1.5
			c0.1-0.3,0.2-0.6,0.2-1c-1.9-16.4,16.5-26.3,22.1-29c14.9-7,30-6.7,40.5,0.8c5.9,4.3,9.8,10.4,10.6,16.7c0,0.3,0.1,0.5,0.2,0.7
			c0.1,0.3,0.2,0.6,0.4,0.7c0.3,0.3,0.7,0.5,1.2,0.6c0.6,0,1.1-0.1,1.6-0.5c0,0,0,0,0.1,0c0.4-0.3,0.6-0.8,0.7-1.3v0
			c0.3-3.7,3.9-6.4,7.1-8.6c3.9-2.6,7.9-4.7,11.8-6.3c8.6-3.5,17.5-4.8,25.6-3.8c16.5,2,30,13.4,33,27.8c1.7,8.2,0.1,16.7-4.3,22.9
			c-0.4,0.2-0.6,0.6-0.7,0.9c0,0-0.1,0.1-0.1,0.2c-0.8,1-0.4,2.4,0.4,3c0.4,0.3,0.8,0.4,1.1,0.4c0.5,0,1-0.2,1.4-0.7
			c0.2-0.2,0.3-0.4,0.5-0.6c8.6-3.6,19.1-5,32.2-4.4c11.3,0.6,19.8,3.2,26.1,8.1c8.3,6.4,11.4,16.9,13.3,26.4
			c2.2,10.7,4.1,23.2,1.4,35.3c-2.5,11.4-8.9,20.6-17.4,25.4c-0.6,0.3-1,0.9-1,1.6c0,0.7,0.4,1.5,1,1.9c0.3,0.2,0.6,0.3,1,0.3
			c0.3,0,0.7-0.1,1-0.3c0.3-0.2,0.7-0.4,1-0.6c0.1,0,0.2,0,0.3,0c6.9-1.8,14.6-0.3,21.3,4c6.5,4.2,11.2,11,13.2,19
			c4.1,16.2-1.9,34.6-14.7,45c-7.2,5.8-16.3,8.3-24.9,7c0,0-0.1,0-0.1,0c-0.6-0.1-1.3-0.2-1.9-0.4c-0.7-0.2-1.4,0-1.9,0.5
			c-0.5,0.6-0.7,1.4-0.5,2.1c0.2,0.6,0.7,1.1,1.4,1.2c0.2,0.1,0.5,0.1,0.7,0.2c0.1,8.6,0.1,19-2.4,28.6c-2.6,10-8.2,18.1-16.2,23.3
			c-7.3,4.7-16.5,7.7-27.4,8.8c-12.4,1.3-23.3,0.2-32.6-3.2c-10.4-3.8-18.2-10.6-21.9-18.9c3.2-0.1,6-0.5,8.2-1.3
			c3.6-1.3,6.1-3.7,7.1-6.8c0.4-1.2-0.3-2.1-1.2-2.4c-1-0.3-2.2,0-2.6,1.3c-0.7,2.3-2.9,3.8-6.3,4.6c-2.3,0.5-4.7,0.6-7.1,0.6
			c-0.2-0.1-0.4-0.3-0.7-0.3c-0.5-0.1-1.1,0-1.5,0.2c-0.4,0-0.9,0-1.3-0.1c-8.1-0.5-16.9-3.9-17.5-11.7c-0.1-0.8-0.5-1.4-1.1-1.7
			c-0.7-0.3-1.5-0.3-2.1,0.1c-0.5,0.4-0.8,0.9-0.7,1.6v0c0.6,8.3,8,13.1,14.1,14.6c1,0.3,2,0.5,3,0.6c-0.1,0.2-0.1,0.3-0.1,0.5
			c-0.8,8-6.2,15.6-14.6,20.4c-7.8,4.4-17.6,6-30.7,4.9c-11.8-1-22.5-3-31.7-6.1c-10.4-3.5-19-8.8-25.5-15.7
			c-7-7.5-11.7-16.7-13.7-26.8c0-0.1,0.1-0.2,0.1-0.3c0.5-1.2-0.1-2.4-1.1-2.8c-0.9-0.4-1.9-0.1-2.3,0.8c0,0-0.1,0-0.1,0.1
			c-0.5,0.4-0.7,0.9-0.7,1.5c-3.2,5.6-9.2,9.7-16.8,11.5c-9.1,2-18.5,0.3-27.7-1.3l-1.8-0.3c-9.8-1.8-18.6-3.6-26.5-7.9
			c-7.8-4.2-14.1-10.5-21-17.7c-5.6-5.8-11-12.6-11.3-20c1.5,0.3,3,0.6,4.5,0.7c0.7,0,1.3,0.1,2,0.1c3.2,0,6.5-0.6,9.5-1.7
			c0.7-0.3,1.2-0.8,1.3-1.6c0.1-0.8-0.1-1.5-0.7-2c-0.5-0.4-1.1-0.5-1.8-0.3c-4.7,1.7-9.8,2-14.5,0.8c0-0.1,0-0.2,0.1-0.3
			c0.2-0.7,0-1.4-0.5-1.9c-0.5-0.5-1.3-0.7-2.1-0.5c-0.6,0.2-1.1,0.7-1.3,1.4c0,0,0,0,0,0c-0.2-0.1-0.4-0.2-0.6-0.3
			c-0.1-0.2-0.3-0.5-0.5-0.7c-0.5-0.4-1.1-0.7-1.7-0.6c-0.2-0.1-0.4-0.2-0.6-0.4c-5.8-3.9-9.8-10.7-10.3-17.8c-0.1-1.3-1.3-2-2.3-1.9
			c-1.1,0.1-1.8,0.9-1.7,2v0c0.5,6.5,3.2,12.6,7.7,17.3c1.2,1.3,2.6,2.4,4,3.4c-12.8,11.4-32.4,15.6-54.3,11.5
			c-5.2-1-10.6-2.3-16.5-4.2c-5.5-1.7-9.9-3.4-13.7-5.2c-9.7-4.7-16.6-10.9-20.3-18.4c-4.5-9.2-4.8-20.2-0.6-29.4
			c0.3-0.7,0.2-1.4-0.2-2.1c-0.5-0.6-1.2-1-1.9-0.9c-0.6,0.1-1.1,0.4-1.4,1.1v0c-4,8.9-4.5,19.4-1.2,28.8c3.2,9,9.8,16.7,19.4,22.2
			c8.2,4.7,17.9,8.2,30.8,11.1c7.8,1.8,15.1,2.7,22,2.7c4.3,0,8.5-0.3,12.5-1c11.5-2,21.6-6.8,29.1-13.9c0.6,0.3,1.2,0.6,1.9,0.8
			c-0.2,6.4,2.8,13.1,9.2,20.5c3.2,3.7,6.7,7.2,10.1,10.4c4.3,4.1,7.8,7,11.4,9.3c8.6,5.7,18.6,8.1,28.1,9.9l2.2,0.4
			c7.3,1.4,14.8,2.8,22.3,2.8c2.5,0,4.9-0.2,7.4-0.5c6.6-1,14.5-4.2,19.6-10.4c2.2,8,6.1,15.6,11.5,22.2c6.5,7.9,15.2,14,25.9,18.1
			c11.9,4.6,24.8,6.3,33.4,7.3c3.8,0.4,7.3,0.6,10.6,0.6c9.2,0,16.7-1.6,23.2-4.8c10.5-5.2,17.6-14.7,18.6-24.8c0-0.1,0-0.1,0-0.2
			c0.5,0,1,0.1,1.5,0.1c3.3,8.6,10.5,16,19.9,20.6c8.3,4.1,18,6.1,28.9,6.1c1.8,0,3.6-0.1,5.4-0.2c12.3-0.7,22.4-3.3,30.8-7.8
			c9.4-5.1,16.3-13,19.9-22.9c4-11,4.1-23.4,4-33.8c0.9,0.1,1.9,0.1,2.9,0.1c6.8,0,13.7-2,19.7-5.9c7.3-4.7,13.1-12,16.8-21
			C804.7,706.9,804.2,684.6,788.2,672.2z"/>
	</g>
</svg>
